<svg width="150" height="105" viewBox="0 0 150 105" fill="none" xmlns="http://www.w3.org/2000/svg">
<path d="M22.4243 34.5307L58.8946 14.2735L77.9286 4.22644C82.7572 1.33647 88.9527 0 95.0069 0C100.313 0 105.318 1.2776 109.724 3.539C113.347 5.39802 116.565 7.92186 119.214 10.9473C122.472 14.6681 124.869 19.1476 126.098 24.0821C126.706 26.5218 127.029 29.0728 127.029 31.6983C127.029 32.7203 126.98 33.731 126.884 34.7283C125.343 50.8134 111.66 63.3965 95.0069 63.3965C89.9851 63.3965 85.2333 62.2522 81.003 60.2127L109.152 44.5775C110.351 41.9366 111.018 39.0077 111.018 35.9247C111.018 34.7949 110.928 33.6859 110.756 32.6041C109.936 27.4631 107.244 22.9383 103.392 19.7357C99.6813 16.6506 94.8948 14.7925 89.6699 14.7925C89.6006 14.7925 89.5314 14.7929 89.4622 14.7935L40.0838 42.2204C39.6251 42.2496 39.1624 42.2644 38.6963 42.2644C32.1769 42.2644 26.3401 39.3715 22.4243 34.8118V34.5307Z" fill="white"/>
<path d="M102.662 36.3648C102.705 35.9688 102.727 35.5664 102.727 35.1587C102.727 29.5116 98.4934 24.8662 93.0667 24.302L44.6131 51.8473C48.5594 56.3401 54.3102 59.1701 60.7134 59.1701C61.386 59.1701 62.0514 59.1389 62.7083 59.0778L102.662 36.3648Z" fill="white"/>
<path d="M146.821 104.998C144.513 104.996 142.713 104.387 141.42 103.169C140.128 101.925 139.482 100.175 139.483 97.9182L139.496 76.4648L145.43 76.4683L145.418 97.5794C145.417 98.4416 145.632 99.1137 146.063 99.5958C146.519 100.053 147.153 100.281 147.964 100.282C148.269 100.282 148.573 100.244 148.877 100.168C149.207 100.092 149.461 100.004 149.638 99.9022L149.902 104.505C148.913 104.834 147.886 104.998 146.821 104.998Z" fill="white"/>
<path d="M133.998 84.2218L133.986 104.686L128.318 104.683L128.32 102.324C126.848 104.099 124.717 104.985 121.928 104.983C120.001 104.982 118.251 104.55 116.679 103.687C115.133 102.824 113.916 101.593 113.03 99.9951C112.143 98.397 111.701 96.5456 111.702 94.4408C111.703 92.336 112.148 90.4851 113.036 88.8881C113.925 87.291 115.143 86.0618 116.69 85.2005C118.263 84.3393 120.013 83.9092 121.94 83.9103C124.552 83.9119 126.593 84.7372 128.063 86.3864L128.064 84.2183L133.998 84.2218ZM122.958 100.115C124.454 100.116 125.697 99.6095 126.686 98.5958C127.676 97.5567 128.171 96.1749 128.172 94.4505C128.173 92.7261 127.68 91.3565 126.691 90.3416C125.703 89.3013 124.461 88.7807 122.964 88.7798C121.443 88.7789 120.187 89.298 119.198 90.3371C118.208 91.3509 117.713 92.72 117.712 94.4443C117.711 96.1687 118.204 97.5511 119.193 98.5914C120.181 99.6063 121.436 100.114 122.958 100.115Z" fill="white"/>
<path d="M107.595 104.973C105.287 104.972 103.487 104.362 102.195 103.144C100.902 101.901 100.257 100.151 100.258 97.8938L100.271 76.4404L106.204 76.4439L106.192 97.555C106.191 98.4172 106.407 99.0893 106.837 99.5714C107.294 100.028 107.927 100.257 108.739 100.257C109.043 100.257 109.348 100.219 109.652 100.144C109.982 100.068 110.235 99.9791 110.413 99.8778L110.676 104.481C109.687 104.81 108.66 104.974 107.595 104.973Z" fill="white"/>
<path d="M88.825 84.1945L94.759 84.198L94.7469 104.662L88.813 104.659L88.825 84.1945ZM91.7937 81.3434C90.7033 81.3428 89.8159 81.0253 89.1316 80.3909C88.4473 79.7565 88.1054 78.9702 88.106 78.032C88.1065 77.0937 88.4493 76.3078 89.1344 75.6742C89.8194 75.0406 90.7072 74.7242 91.7976 74.7248C92.888 74.7255 93.7754 75.0303 94.4597 75.6393C95.144 76.2483 95.4859 77.0093 95.4854 77.9222C95.4848 78.9112 95.142 79.7351 94.4569 80.3941C93.7718 81.0276 92.8841 81.3441 91.7937 81.3434Z" fill="white"/>
<path d="M82.9472 78.0281L82.9315 104.655L76.7693 104.651L76.7758 93.7341L64.6797 93.727L64.6733 104.644L58.5111 104.64L58.5269 78.0137L64.689 78.0173L64.6828 88.5158L76.7789 88.5229L76.7851 78.0244L82.9472 78.0281Z" fill="white"/>
<path d="M42.668 91.5469L53.4327 91.5532L53.4299 96.308L42.6652 96.3016L42.668 91.5469Z" fill="white"/>
<path d="M37.426 104.933C35.1184 104.932 33.3183 104.322 32.0257 103.104C30.7332 101.861 30.0876 100.111 30.0889 97.8538L30.1016 76.4004L36.0355 76.4039L36.023 97.5149C36.0225 98.3771 36.2377 99.0493 36.6685 99.5313C37.1247 99.9881 37.7585 100.217 38.57 100.217C38.8743 100.217 39.1786 100.179 39.4829 100.104C39.8126 100.028 40.0663 99.9391 40.2439 99.8377L40.5074 104.44C39.5182 104.77 38.4911 104.934 37.426 104.933Z" fill="white"/>
<path d="M12.2263 77.5306C14.6861 77.5321 16.8286 78.0152 18.6538 78.9799C20.4791 79.9446 21.8983 81.3655 22.9116 83.2426C23.9248 85.1198 24.4306 87.3897 24.4291 90.0523L24.4205 104.621L18.2583 104.617L18.2621 98.2268L6.08997 98.2197L6.0862 104.61L0.000126444 104.606L0.00872611 90.0379C0.0102978 87.3753 0.51881 85.106 1.53426 83.23C2.54971 81.3541 3.97064 79.9348 5.79703 78.9723C7.62341 78.0097 9.7665 77.5292 12.2263 77.5306ZM18.265 93.2819L18.2673 89.4781C18.2686 87.2719 17.7243 85.6106 16.6346 84.4942C15.5448 83.3524 14.0617 82.781 12.1852 82.7799C10.2833 82.7787 8.78676 83.3484 7.69567 84.4889C6.62995 85.6041 6.09643 87.2647 6.09513 89.4709L6.09289 93.2747L18.265 93.2819Z" fill="white"/>
</svg>
