<svg width="230" height="125" viewBox="0 0 230 125" fill="none" xmlns="http://www.w3.org/2000/svg">
<path d="M188.114 35.6802H174.571V0.481445H187.977C191.597 0.481445 194.725 1.18611 197.361 2.59543C200.007 3.9933 202.047 6.0099 203.479 8.64522C204.923 11.2691 205.645 14.4143 205.645 18.0808C205.645 21.7474 204.929 24.8983 203.496 27.5336C202.064 30.1575 200.036 32.1741 197.412 33.5834C194.788 34.9813 191.689 35.6802 188.114 35.6802ZM184.127 27.568H187.77C189.512 27.568 190.996 27.2873 192.222 26.7258C193.459 26.1644 194.399 25.1962 195.04 23.8212C195.693 22.4463 196.02 20.5328 196.02 18.0808C196.02 15.6288 195.688 13.7154 195.023 12.3404C194.37 10.9654 193.408 9.99725 192.136 9.43582C190.875 8.87438 189.329 8.59366 187.495 8.59366H184.127V27.568Z" fill="white"/>
<path d="M168.115 0.481445V35.6802H160.14L147.422 17.1871H147.216V35.6802H137.66V0.481445H145.772L158.284 18.9058H158.559V0.481445H168.115Z" fill="white"/>
<path d="M106.347 35.6802H96.0347L107.653 0.481445H120.715L132.333 35.6802H122.021L114.322 10.1749H114.047L106.347 35.6802ZM104.422 21.7932H123.809V28.9429H104.422V21.7932Z" fill="white"/>
<path d="M62.939 35.6802V0.481445H78.1322C80.7446 0.481445 83.0304 0.956949 84.9897 1.90796C86.9491 2.85897 88.473 4.22819 89.5615 6.01563C90.65 7.80306 91.1942 9.94569 91.1942 12.4435C91.1942 14.9643 90.6328 17.0897 89.5099 18.8199C88.3985 20.55 86.8345 21.8562 84.8179 22.7385C82.8127 23.6207 80.4696 24.0619 77.7884 24.0619H68.7138V16.6371H75.8635C76.9864 16.6371 77.9431 16.4996 78.7337 16.2246C79.5358 15.9382 80.1488 15.4856 80.5727 14.8669C81.0081 14.2481 81.2258 13.4404 81.2258 12.4435C81.2258 11.4352 81.0081 10.616 80.5727 9.9858C80.1488 9.34415 79.5358 8.87438 78.7337 8.57647C77.9431 8.26711 76.9864 8.11242 75.8635 8.11242H72.4949V35.6802H62.939ZM83.5632 19.5245L92.3629 35.6802H81.982L73.3886 19.5245H83.5632Z" fill="white"/>
<path d="M46.476 12.0996C46.3271 11.4923 46.0922 10.9595 45.7714 10.5012C45.4506 10.0314 45.0495 9.63612 44.5683 9.3153C44.0985 8.98302 43.5485 8.73667 42.9184 8.57626C42.2996 8.40439 41.6179 8.31846 40.8731 8.31846C39.269 8.31846 37.8998 8.7023 36.7654 9.46998C35.6426 10.2377 34.7832 11.3433 34.1874 12.787C33.6031 14.2307 33.3109 15.9724 33.3109 18.0119C33.3109 20.0743 33.5916 21.8388 34.153 23.3054C34.7145 24.772 35.5509 25.8949 36.6623 26.6741C37.7737 27.4532 39.1544 27.8428 40.8044 27.8428C42.2595 27.8428 43.4683 27.6308 44.4308 27.2069C45.4047 26.7829 46.1323 26.1814 46.6135 25.4022C47.0948 24.6231 47.3354 23.7065 47.3354 22.6523L48.9853 22.8242H40.9419V16.0182H56.5476V20.8993C56.5476 24.1075 55.8658 26.8517 54.5023 29.1318C53.1503 31.4005 51.2826 33.1421 48.8994 34.3566C46.5276 35.5597 43.8063 36.1612 40.7356 36.1612C37.3097 36.1612 34.302 35.4336 31.7125 33.9785C29.123 32.5233 27.1007 30.4494 25.6455 27.7568C24.2018 25.0642 23.48 21.8617 23.48 18.1494C23.48 15.239 23.9211 12.661 24.8034 10.4153C25.6971 8.1695 26.9345 6.27322 28.5157 4.7264C30.0969 3.16812 31.9245 1.99368 33.9984 1.20308C36.0722 0.401027 38.2951 0 40.6669 0C42.7522 0 44.6886 0.297907 46.476 0.89372C48.2749 1.47807 49.8619 2.3145 51.2368 3.403C52.6232 4.48005 53.7404 5.75761 54.5883 7.23568C55.4361 8.71375 55.9517 10.3351 56.1351 12.0996H46.476Z" fill="white"/>
<path d="M202.208 42.5889V63.4881H197.473L189.921 52.5079H189.799V63.4881H184.125V42.5889H188.942L196.371 53.5283H196.534V42.5889H202.208Z" fill="white"/>
<path d="M166.683 63.4881H160.56L167.458 42.5889H175.214L182.112 63.4881H175.99L171.418 48.3443H171.255L166.683 63.4881ZM165.54 55.2427H177.051V59.4879H165.54V55.2427Z" fill="white"/>
<path d="M139.702 63.4881V42.5889H145.375V50.7526H152.886V42.5889H158.56V63.4881H152.886V55.3244H145.375V63.4881H139.702Z" fill="white"/>
<path d="M126.668 63.4881H118.626V42.5889H126.586C128.736 42.5889 130.593 43.0073 132.158 43.844C133.729 44.674 134.94 45.8714 135.791 47.4361C136.648 48.994 137.077 50.8615 137.077 53.0385C137.077 55.2155 136.651 57.0864 135.801 58.6511C134.951 60.209 133.746 61.4064 132.189 62.2432C130.631 63.0731 128.79 63.4881 126.668 63.4881ZM124.3 58.6715H126.464C127.498 58.6715 128.379 58.5048 129.107 58.1715C129.841 57.8381 130.399 57.2633 130.78 56.4469C131.168 55.6305 131.362 54.4944 131.362 53.0385C131.362 51.5826 131.165 50.4465 130.77 49.6301C130.382 48.8137 129.811 48.2389 129.056 47.9055C128.307 47.5722 127.389 47.4055 126.3 47.4055H124.3V58.6715Z" fill="white"/>
<path d="M101.184 63.4881H95.061L101.959 42.5889H109.715L116.613 63.4881H110.491L105.919 48.3443H105.756L101.184 63.4881ZM100.041 55.2427H111.552V59.4879H100.041V55.2427Z" fill="white"/>
<path d="M68.9829 42.5889H76.0446L80.902 54.4263H81.1469L86.0044 42.5889H93.066V63.4881H87.5147V51.4057H87.3514L82.6981 63.3249H79.3509L74.6976 51.3241H74.5343V63.4881H68.9829V42.5889Z" fill="white"/>
<path d="M51.5403 63.4881H45.4175L52.3159 42.5889H60.0715L66.9698 63.4881H60.847L56.2753 48.3443H56.112L51.5403 63.4881ZM50.3974 55.2427H61.9083V59.4879H50.3974V55.2427Z" fill="white"/>
<path d="M26.9165 63.4881V42.5889H35.9375C37.4886 42.5889 38.8458 42.8712 40.0092 43.4359C41.1725 44.0005 42.0773 44.8135 42.7236 45.8748C43.3699 46.9361 43.6931 48.2083 43.6931 49.6914C43.6931 51.188 43.3597 52.45 42.693 53.4773C42.0331 54.5046 41.1045 55.2801 39.9071 55.804C38.7166 56.3278 37.3253 56.5897 35.7334 56.5897H30.3453V52.1813H34.5905C35.2572 52.1813 35.8252 52.0997 36.2946 51.9364C36.7709 51.7663 37.1348 51.4976 37.3865 51.1302C37.6451 50.7628 37.7743 50.2832 37.7743 49.6914C37.7743 49.0927 37.6451 48.6063 37.3865 48.2321C37.1348 47.8511 36.7709 47.5722 36.2946 47.3953C35.8252 47.2116 35.2572 47.1198 34.5905 47.1198H32.5903V63.4881H26.9165ZM39.1622 53.8957L44.387 63.4881H38.2233L33.121 53.8957H39.1622Z" fill="white"/>
<path d="M170.243 105.115V69.9165H179.799V83.666H192.449V69.9165H202.005V105.115H192.449V91.3657H179.799V105.115H170.243Z" fill="#F9A028"/>
<path d="M142.802 105.115H132.49L144.109 69.9165H157.171L168.789 105.115H158.477L150.777 79.6099H150.502L142.802 105.115ZM140.877 91.2283H160.264V98.378H140.877V91.2283Z" fill="#F9A028"/>
<path d="M103.266 105.115V69.9165H118.459C121.072 69.9165 123.358 70.392 125.317 71.343C127.276 72.294 128.8 73.6632 129.889 75.4507C130.977 77.2381 131.521 79.3808 131.521 81.8786C131.521 84.3993 130.96 86.5248 129.837 88.2549C128.726 89.9851 127.162 91.2913 125.145 92.1735C123.14 93.0558 120.797 93.4969 118.116 93.4969H109.041V86.0722H116.191C117.314 86.0722 118.27 85.9347 119.061 85.6597C119.863 85.3732 120.476 84.9207 120.9 84.3019C121.335 83.6832 121.553 82.8754 121.553 81.8786C121.553 80.8703 121.335 80.051 120.9 79.4209C120.476 78.7792 119.863 78.3094 119.061 78.0115C118.27 77.7022 117.314 77.5475 116.191 77.5475H112.822V105.115H103.266ZM123.89 88.9596L132.69 105.115H122.309L113.716 88.9596H123.89Z" fill="#F9A028"/>
<path d="M60.1123 69.9165H72.0056L80.1866 89.8533H80.5991L88.78 69.9165H100.673V105.115H91.3237V84.766H91.0487L83.2115 104.84H77.5742L69.737 84.6285H69.462V105.115H60.1123V69.9165Z" fill="#F9A028"/>
<path d="M47.9506 69.9165H57.5065V92.4657C57.5065 95.1469 56.8649 97.4671 55.5816 99.4264C54.3098 101.374 52.5338 102.881 50.2537 103.947C47.9735 105.001 45.3268 105.528 42.3133 105.528C39.277 105.528 36.6187 105.001 34.3386 103.947C32.0585 102.881 30.2825 101.374 29.0107 99.4264C27.7503 97.4671 27.1201 95.1469 27.1201 92.4657V69.9165H36.676V91.6407C36.676 92.7292 36.9166 93.7032 37.3979 94.5625C37.8791 95.4104 38.5437 96.075 39.3916 96.5562C40.2509 97.0374 41.2248 97.278 42.3133 97.278C43.4133 97.278 44.3872 97.0374 45.2351 96.5562C46.083 96.075 46.7476 95.4104 47.2288 94.5625C47.71 93.7032 47.9506 92.7292 47.9506 91.6407V69.9165Z" fill="#F9A028"/>
<line y1="118.978" x2="62.3884" y2="118.978" stroke="#F9A028" stroke-width="3"/>
<path d="M154.246 118.607C154.212 118.26 154.064 117.991 153.804 117.799C153.543 117.607 153.189 117.511 152.742 117.511C152.439 117.511 152.182 117.554 151.973 117.64C151.764 117.723 151.604 117.839 151.492 117.988C151.383 118.137 151.329 118.306 151.329 118.495C151.323 118.652 151.356 118.79 151.428 118.907C151.502 119.025 151.604 119.127 151.733 119.212C151.862 119.296 152.01 119.369 152.179 119.432C152.348 119.492 152.529 119.543 152.721 119.586L153.511 119.775C153.895 119.861 154.248 119.976 154.568 120.119C154.889 120.262 155.167 120.438 155.402 120.648C155.637 120.857 155.819 121.103 155.948 121.387C156.079 121.67 156.147 121.995 156.15 122.362C156.147 122.901 156.009 123.367 155.737 123.763C155.468 124.155 155.078 124.46 154.568 124.678C154.061 124.893 153.45 125 152.734 125C152.023 125 151.405 124.891 150.878 124.674C150.353 124.456 149.944 124.134 149.649 123.707C149.357 123.277 149.203 122.746 149.189 122.113H150.989C151.009 122.408 151.094 122.654 151.243 122.852C151.395 123.047 151.597 123.194 151.849 123.294C152.104 123.392 152.391 123.44 152.712 123.44C153.027 123.44 153.301 123.395 153.533 123.303C153.768 123.211 153.95 123.084 154.079 122.921C154.208 122.757 154.272 122.57 154.272 122.358C154.272 122.16 154.213 121.994 154.096 121.859C153.981 121.725 153.812 121.61 153.589 121.516C153.368 121.421 153.098 121.335 152.777 121.258L151.819 121.017C151.077 120.837 150.491 120.554 150.061 120.171C149.632 119.787 149.418 119.27 149.421 118.62C149.418 118.087 149.56 117.621 149.846 117.223C150.136 116.825 150.532 116.514 151.037 116.291C151.541 116.067 152.114 115.956 152.755 115.956C153.408 115.956 153.978 116.067 154.465 116.291C154.955 116.514 155.336 116.825 155.608 117.223C155.88 117.621 156.021 118.082 156.029 118.607H154.246Z" fill="white"/>
<path d="M140.189 116.076H142.273L144.28 119.865H144.366L146.372 116.076H148.456L145.247 121.765V124.875H143.399V121.765L140.189 116.076Z" fill="white"/>
<path d="M134.069 124.875H132.075L135.113 116.076H137.511L140.544 124.875H138.55L136.346 118.087H136.277L134.069 124.875ZM133.944 121.417H138.653V122.869H133.944V121.417Z" fill="white"/>
<path d="M127.365 124.875H124.246V116.076H127.391C128.276 116.076 129.038 116.252 129.677 116.604C130.315 116.954 130.807 117.456 131.15 118.112C131.497 118.768 131.67 119.553 131.67 120.467C131.67 121.384 131.497 122.171 131.15 122.83C130.807 123.489 130.313 123.995 129.668 124.347C129.026 124.699 128.259 124.875 127.365 124.875ZM126.106 123.281H127.288C127.838 123.281 128.3 123.184 128.676 122.989C129.054 122.791 129.337 122.486 129.526 122.074C129.718 121.659 129.814 121.123 129.814 120.467C129.814 119.817 129.718 119.285 129.526 118.873C129.337 118.46 129.055 118.157 128.68 117.962C128.305 117.767 127.842 117.67 127.292 117.67H126.106V123.281Z" fill="white"/>
<path d="M116.809 124.996C116.202 124.996 115.66 124.884 115.185 124.661C114.712 124.437 114.337 124.129 114.059 123.737C113.781 123.344 113.636 122.895 113.625 122.388H115.43C115.45 122.728 115.593 123.005 115.859 123.217C116.126 123.429 116.442 123.535 116.809 123.535C117.101 123.535 117.359 123.47 117.582 123.341C117.809 123.21 117.985 123.028 118.111 122.796C118.24 122.561 118.304 122.292 118.304 121.988C118.304 121.679 118.238 121.406 118.106 121.172C117.978 120.937 117.799 120.753 117.569 120.622C117.34 120.49 117.078 120.423 116.783 120.42C116.525 120.42 116.275 120.473 116.031 120.579C115.791 120.685 115.603 120.829 115.468 121.013L113.814 120.716L114.231 116.076H119.61V117.597H115.765L115.537 119.801H115.589C115.743 119.583 115.977 119.403 116.289 119.26C116.601 119.116 116.951 119.045 117.337 119.045C117.867 119.045 118.34 119.169 118.755 119.419C119.171 119.668 119.499 120.01 119.739 120.445C119.98 120.878 120.099 121.376 120.096 121.941C120.099 122.534 119.961 123.061 119.683 123.522C119.408 123.98 119.023 124.341 118.528 124.605C118.035 124.865 117.462 124.996 116.809 124.996Z" fill="white"/>
<path d="M111.503 116.076V124.875H109.643V117.842H109.591L107.576 119.105V117.455L109.755 116.076H111.503Z" fill="white"/>
<path d="M96.5088 117.61V116.076H103.736V117.61H101.042V124.875H99.2028V117.61H96.5088Z" fill="white"/>
<path d="M93.6896 118.607C93.6552 118.26 93.5077 117.991 93.247 117.799C92.9863 117.607 92.6326 117.511 92.1857 117.511C91.8821 117.511 91.6257 117.554 91.4166 117.64C91.2075 117.723 91.0471 117.839 90.9354 117.988C90.8265 118.137 90.7721 118.306 90.7721 118.495C90.7664 118.652 90.7993 118.79 90.8709 118.907C90.9454 119.025 91.0471 119.127 91.176 119.212C91.3049 119.296 91.4538 119.369 91.6228 119.432C91.7918 119.492 91.9723 119.543 92.1642 119.586L92.9548 119.775C93.3387 119.861 93.691 119.976 94.0118 120.119C94.3326 120.262 94.6105 120.438 94.8454 120.648C95.0803 120.857 95.2622 121.103 95.3911 121.387C95.5228 121.67 95.5902 121.995 95.593 122.362C95.5902 122.901 95.4527 123.367 95.1805 123.763C94.9113 124.155 94.5217 124.46 94.0118 124.678C93.5048 124.893 92.8932 125 92.1771 125C91.4667 125 90.848 124.891 90.3209 124.674C89.7967 124.456 89.3871 124.134 89.0921 123.707C88.7999 123.277 88.6466 122.746 88.6323 122.113H90.4327C90.4527 122.408 90.5372 122.654 90.6862 122.852C90.838 123.047 91.0399 123.194 91.292 123.294C91.5469 123.392 91.8348 123.44 92.1556 123.44C92.4707 123.44 92.7443 123.395 92.9763 123.303C93.2112 123.211 93.3931 123.084 93.522 122.921C93.6509 122.757 93.7153 122.57 93.7153 122.358C93.7153 122.16 93.6566 121.994 93.5392 121.859C93.4246 121.725 93.2556 121.61 93.0322 121.516C92.8116 121.421 92.5409 121.335 92.2201 121.258L91.2619 121.017C90.52 120.837 89.9342 120.554 89.5046 120.171C89.0749 119.787 88.8615 119.27 88.8643 118.62C88.8615 118.087 89.0033 117.621 89.2897 117.223C89.579 116.825 89.9758 116.514 90.4799 116.291C90.9841 116.067 91.557 115.956 92.1986 115.956C92.8517 115.956 93.4217 116.067 93.9087 116.291C94.3985 116.514 94.7795 116.825 95.0516 117.223C95.3238 117.621 95.4641 118.082 95.4727 118.607H93.6896Z" fill="white"/>
<path d="M81.5821 124.875H79.5884L82.6262 116.076H85.0237L88.0572 124.875H86.0635L83.8593 118.087H83.7906L81.5821 124.875ZM81.4575 121.417H86.1667V122.869H81.4575V121.417Z" fill="white"/>
<path d="M72.9761 124.875V116.076H74.8366V123.341H78.6091V124.875H72.9761Z" fill="white"/>
<line x1="166.736" y1="118.978" x2="229.125" y2="118.978" stroke="#F9A028" stroke-width="3"/>
</svg>
