<svg width="129" height="129" viewBox="0 0 129 129" fill="none" xmlns="http://www.w3.org/2000/svg">
<circle cx="64.5" cy="64.5" r="64.5" fill="#970246"/>
<path d="M24 67.1445L51.5433 51.807L65.9184 44.2C69.565 42.0119 74.244 41 78.8163 41C82.8237 41 86.6035 41.9673 89.9314 43.6795C92.6672 45.087 95.0977 46.9979 97.0983 49.2887C99.5586 52.1058 101.369 55.4974 102.297 59.2335C102.756 61.0807 103 63.0121 103 65C103 65.7738 102.963 66.5391 102.891 67.2941C101.727 79.4728 91.3929 89 78.8163 89C75.0237 89 71.435 88.1336 68.2402 86.5894L89.499 74.7514C90.4045 72.7518 90.9082 70.5343 90.9082 68.2C90.9082 67.3446 90.8405 66.5049 90.7103 65.6858C90.0912 61.7934 88.0579 58.3675 85.1489 55.9427C82.3466 53.6068 78.7317 52.2 74.7857 52.2C74.7334 52.2 74.6811 52.2003 74.6288 52.2007L37.3369 72.9667C36.9905 72.9888 36.6411 73 36.289 73C31.3654 73 26.9573 70.8097 24 67.3574V67.1445Z" fill="white"/>
<path d="M84.5974 68.5332C84.6298 68.2333 84.6465 67.9287 84.6465 67.6201C84.6465 63.3444 81.4495 59.8272 77.351 59.4L40.7576 80.2556C43.7379 83.6573 48.0811 85.8 52.9169 85.8C53.4249 85.8 53.9275 85.7763 54.4235 85.7301L84.5974 68.5332Z" fill="white"/>
</svg>
