<svg width="307" height="187" viewBox="0 0 307 187" fill="none" xmlns="http://www.w3.org/2000/svg">
<path d="M0 101.335L106.757 41.8877L162.474 12.4031C176.609 3.92207 194.744 0 212.466 0C227.999 0 242.649 3.74931 255.548 10.3857C266.152 15.8413 275.572 23.2479 283.327 32.1266C292.863 43.0458 299.879 56.1914 303.478 70.6726C305.258 77.8322 306.202 85.3184 306.202 93.0233C306.202 96.0225 306.059 98.9886 305.779 101.915C301.268 149.119 261.213 186.047 212.466 186.047C197.766 186.047 183.857 182.688 171.474 176.703L253.872 130.819C257.382 123.069 259.334 114.474 259.334 105.426C259.334 102.111 259.072 98.8561 258.567 95.6815C256.168 80.5944 248.286 67.3158 237.011 57.9174C226.15 48.8637 212.138 43.4109 196.844 43.4109C196.641 43.4109 196.438 43.4119 196.236 43.4137L51.6934 123.902C50.3507 123.988 48.9964 124.031 47.6319 124.031C28.5481 124.031 11.4623 115.542 0 102.16V101.335Z" fill="#970246"/>
<path d="M234.873 106.718C234.999 105.556 235.064 104.375 235.064 103.179C235.064 86.6061 222.672 72.9735 206.787 71.3178L64.9518 152.154C76.5036 165.338 93.3375 173.643 112.081 173.643C114.05 173.643 115.998 173.552 117.921 173.372L234.873 106.718Z" fill="#970246"/>
</svg>
