<?xml version="1.0" encoding="UTF-8" standalone="no"?>
<svg
   enable-background="new 0 0 512 512"
   height="300"
   viewBox="0 0 433.25582 485.72587"
   width="267.5928"
   version="1.1"
   id="svg124"
   sodipodi:docname="Ministry_of_Hajj_and_Umrah_Logo.svg"
   inkscape:version="1.3.2 (091e20e, 2023-11-25, custom)"
   xmlns:inkscape="http://www.inkscape.org/namespaces/inkscape"
   xmlns:sodipodi="http://sodipodi.sourceforge.net/DTD/sodipodi-0.dtd"
   xmlns:xlink="http://www.w3.org/1999/xlink"
   xmlns="http://www.w3.org/2000/svg"
   xmlns:svg="http://www.w3.org/2000/svg">
  <defs
     id="defs124">
    <radialGradient
       inkscape:collect="always"
       xlink:href="#k"
       id="radialGradient127"
       gradientUnits="userSpaceOnUse"
       cx="251.77075"
       cy="14.159027"
       r="216.22493" />
    <radialGradient
       inkscape:collect="always"
       xlink:href="#k"
       id="radialGradient128"
       gradientUnits="userSpaceOnUse"
       cx="251.77075"
       cy="14.159027"
       r="216.22493" />
    <radialGradient
       inkscape:collect="always"
       xlink:href="#ah"
       id="radialGradient129"
       gradientUnits="userSpaceOnUse"
       cx="261.48026"
       cy="102.99017"
       r="257.94669" />
    <radialGradient
       inkscape:collect="always"
       xlink:href="#ah"
       id="radialGradient130"
       gradientUnits="userSpaceOnUse"
       cx="261.48026"
       cy="102.99017"
       r="257.94669" />
    <radialGradient
       inkscape:collect="always"
       xlink:href="#ah"
       id="radialGradient131"
       gradientUnits="userSpaceOnUse"
       cx="261.48026"
       cy="102.99017"
       r="257.94669" />
    <radialGradient
       inkscape:collect="always"
       xlink:href="#k"
       id="radialGradient132"
       gradientUnits="userSpaceOnUse"
       cx="251.77075"
       cy="14.159027"
       r="216.22493" />
  </defs>
  <sodipodi:namedview
     id="namedview124"
     pagecolor="#ffffff"
     bordercolor="#999999"
     borderopacity="1"
     inkscape:showpageshadow="2"
     inkscape:pageopacity="0"
     inkscape:pagecheckerboard="0"
     inkscape:deskcolor="#d1d1d1"
     inkscape:zoom="1.5071099"
     inkscape:cx="94.883593"
     inkscape:cy="172.51562"
     inkscape:window-width="1500"
     inkscape:window-height="912"
     inkscape:window-x="-8"
     inkscape:window-y="-8"
     inkscape:window-maximized="1"
     inkscape:current-layer="svg124" />
  <clipPath
     id="a">
    <path
       d="m 294.1,174.8 -52.2,15 v 80.9 l 52.2,-11.6 z"
       id="path1" />
  </clipPath>
  <linearGradient
     id="b">
    <stop
       offset="0"
       stop-color="#3d3d3b"
       id="stop1" />
    <stop
       offset="1"
       stop-color="#70706f"
       id="stop2" />
  </linearGradient>
  <linearGradient
     id="c"
     gradientTransform="matrix(-38.5891,0,0,-38.5891,-1541.8619,25158.551)"
     gradientUnits="userSpaceOnUse"
     x1="-47.657299"
     x2="-45.240601"
     xlink:href="#b"
     y1="646.18701"
     y2="646.18701" />
  <clipPath
     id="d">
    <path
       d="m 294.1,151.1 -52.2,15 v 18.1 l 52.2,-15 z"
       id="path2" />
  </clipPath>
  <linearGradient
     id="e"
     gradientTransform="matrix(-38.5891,0,0,-38.5891,-1541.8619,25135.75)"
     gradientUnits="userSpaceOnUse"
     x1="-47.657299"
     x2="-45.240601"
     xlink:href="#b"
     y1="647.02399"
     y2="647.02399" />
  <clipPath
     id="f">
    <path
       d="m 294.1,174.8 v 84.3 l 52.2,-19.5 v -52.2 z"
       id="path3" />
  </clipPath>
  <linearGradient
     id="g"
     gradientTransform="matrix(-23.8861,0,0,-23.8861,-787.2093,15569.793)"
     gradientUnits="userSpaceOnUse"
     x1="-47.372101"
     x2="-44.955299"
     xlink:href="#b"
     y1="642.7511"
     y2="642.7511" />
  <clipPath
     id="h">
    <path
       d="m 294.1,151.1 v 18.1 l 52.2,12.8 v -17.1 z"
       id="path4" />
  </clipPath>
  <linearGradient
     id="i"
     gradientTransform="matrix(-23.8861,0,0,-23.8861,-787.2093,15548.942)"
     gradientUnits="userSpaceOnUse"
     x1="-47.372101"
     x2="-44.955299"
     xlink:href="#b"
     y1="643.98779"
     y2="643.98779" />
  <clipPath
     id="j">
    <path
       d="m 60.1,421.1 c 0,-4.6 1.7,-7.5 5.8,-7.5 4.1,0 5.8,2.9 5.8,7.5 0,5.1 -1.7,7.3 -5.8,7.3 -4.1,-0.1 -5.8,-2.3 -5.8,-7.3 m -4.6,0 c 0,8.2 3.9,11.6 10.2,11.6 6.3,0 10.2,-3.4 10.2,-11.6 0,-8.2 -3.9,-11.6 -10.2,-11.6 -6.3,0 -10.2,3.3 -10.2,11.6 m 5.3,-20.6 c -0.2,0 -0.5,0 -0.5,0.5 v 3.9 c 0,0.2 0,0.5 0.5,0.5 h 3.6 c 0.2,0 0.5,0 0.5,-0.5 V 401 c 0,-0.2 0,-0.5 -0.5,-0.5 z m 6.6,0 c -0.2,0 -0.5,0 -0.5,0.5 v 3.9 c 0,0.2 0,0.5 0.5,0.5 H 71 c 0.2,0 0.5,0 0.5,-0.5 V 401 c 0,-0.2 0,-0.5 -0.5,-0.5 z"
       id="path5" />
  </clipPath>
  <linearGradient
     id="k">
    <stop
       offset="0"
       stop-color="#ab882a"
       id="stop5" />
    <stop
       offset=".0376344"
       stop-color="#ab882a"
       id="stop6" />
    <stop
       offset=".1689"
       stop-color="#9e8435"
       id="stop7" />
    <stop
       offset=".3172"
       stop-color="#8f803c"
       id="stop8" />
    <stop
       offset=".6559"
       stop-color="#3b7937"
       id="stop9" />
    <stop
       offset="1"
       stop-color="#174724"
       id="stop10" />
  </linearGradient>
  <linearGradient
     id="l"
     gradientTransform="matrix(0,107.0831,-107.0831,0,70109.984,5350.5098)"
     gradientUnits="userSpaceOnUse"
     x1="-47.932899"
     x2="-45.516102"
     xlink:href="#k"
     y1="654.11157"
     y2="654.11157" />
  <clipPath
     id="m">
    <path
       d="m 85.5,410.7 c -0.2,0 -0.5,0 -0.5,0.5 v 23 c 0,3.1 -1.4,4.6 -4.3,4.6 h -1.2 c -0.2,0 -0.5,0 -0.5,0.5 v 3.1 c 0,0.2 0,0.5 0.5,0.5 h 1 c 5.8,0 8.7,-2.9 8.7,-8.7 v -3.4 c 1.2,1.2 2.7,1.7 4.3,1.7 h 1.2 c 1.7,0 2.2,-0.2 2.2,-2.2 0,-1.5 -0.7,-1.9 -2.2,-1.9 h -0.5 c -3.1,0 -4.8,-1.2 -4.8,-3.6 v -13.5 c 0,-0.2 0,-0.5 -0.5,-0.5 h -3.4 z"
       id="path10" />
  </clipPath>
  <linearGradient
     id="n"
     gradientTransform="matrix(0,107.0831,-107.0831,0,70119.18,5350.5098)"
     gradientUnits="userSpaceOnUse"
     x1="-47.932899"
     x2="-45.516102"
     xlink:href="#k"
     y1="653.98993"
     y2="653.98993" />
  <clipPath
     id="o">
    <path
       d="m 94.9,428.1 c -1.5,0 -1.7,0.5 -1.7,2.2 0,1.5 0.2,1.9 1.7,1.9 h 5.8 c 1.7,0 2.2,-0.5 2.2,-2.2 0,-1.4 -0.7,-1.9 -2.2,-1.9 z"
       id="path11" />
  </clipPath>
  <linearGradient
     id="p"
     gradientTransform="matrix(0,107.0831,-107.0831,0,70123.383,5350.5098)"
     gradientUnits="userSpaceOnUse"
     x1="-47.932899"
     x2="-45.516102"
     xlink:href="#k"
     y1="653.93433"
     y2="653.93433" />
  <clipPath
     id="q">
    <path
       d="m 100.7,428.1 c -1.5,0 -1.7,0.5 -1.7,2.2 0,1.5 0.2,1.9 1.7,1.9 h 5.8 c 1.7,0 2.2,-0.5 2.2,-2.2 0,-1.4 -0.7,-1.9 -2.2,-1.9 z"
       id="path12" />
  </clipPath>
  <linearGradient
     id="r"
     gradientTransform="matrix(0,107.0831,-107.0831,0,70125.781,5350.5098)"
     gradientUnits="userSpaceOnUse"
     x1="-47.932899"
     x2="-45.516102"
     xlink:href="#k"
     y1="653.90259"
     y2="653.90259" />
  <clipPath
     id="s">
    <path
       d="m 106.8,428.1 c -1.4,0 -1.7,0.5 -1.7,2.2 0,1.5 0.2,1.9 1.7,1.9 h 5.8 c 1.7,0 2.2,-0.5 2.2,-2.2 0,-1.4 -0.7,-1.9 -2.2,-1.9 z"
       id="path13" />
  </clipPath>
  <linearGradient
     id="t"
     gradientTransform="matrix(0,107.0831,-107.0831,0,70128.281,5350.5098)"
     gradientUnits="userSpaceOnUse"
     x1="-47.932899"
     x2="-45.516102"
     xlink:href="#k"
     y1="653.86951"
     y2="653.86951" />
  <clipPath
     id="u">
    <path
       d="m 123,421.1 c 0,-4.6 1.7,-7.3 5.8,-7.5 4.1,0 5.8,2.9 5.8,7.5 0,5.1 -1.7,7.3 -5.8,7.3 -4.2,-0.1 -5.8,-2.3 -5.8,-7.3 m -4.4,0.2 v 2.2 c 0,3.6 -1.7,4.8 -3.4,4.8 h -2.7 c -1.7,0 -2.2,0.2 -2.2,1.9 0,1.5 0.7,2.2 2.2,2.2 h 2.4 c 1.9,0 4.6,-0.2 6,-2.7 1.7,1.9 4.4,2.9 8,3.1 3.1,0 5.8,-1 7.5,-2.9 1.5,2.2 4.1,2.4 6,2.4 h 1.2 c 1.7,0 2.2,-0.2 2.2,-2.2 0,-1.5 -0.7,-1.9 -2.2,-1.9 h -1.7 c -1.7,0 -3.4,-1 -3.4,-4.6 0.2,-0.7 0.2,-1.7 0.2,-2.4 0,-8.2 -3.6,-11.6 -10.2,-11.6 -6,0.1 -9.9,3.5 -9.9,11.7"
       id="path14" />
  </clipPath>
  <linearGradient
     id="v"
     gradientTransform="matrix(0,107.0831,-107.0831,0,70135.828,5350.5098)"
     gradientUnits="userSpaceOnUse"
     x1="-47.932899"
     x2="-45.516102"
     xlink:href="#k"
     y1="653.76959"
     y2="653.76959" />
  <clipPath
     id="w">
    <path
       d="m 151.2,415.3 c 0.7,-0.7 3.6,-1.5 6.5,-1.7 3.9,0 6.5,1 6.5,4.6 0,3.6 -2.9,6.5 -5.3,8 -1.1,-5.1 -4,-9 -7.7,-10.9 m 7,-4.9 c -4.8,0 -8.7,1.7 -10.4,2.7 -0.2,0 -0.5,0.5 -0.5,1 v 3.1 c 0,0.2 0.2,0.5 0.7,1 3.1,2.4 6,4.1 7.3,9.9 -2.2,0.5 -3.6,0.5 -4.6,0.5 H 144 c -1.7,0 -2.2,0.2 -2.2,1.9 0,1.5 0.7,2.2 2.2,2.2 h 7.3 c 2.2,0 4.8,-0.5 7.3,-1.7 1.9,1.2 4.3,1.7 6.8,1.7 h 7.3 c 1.7,0 2.2,-0.7 2.2,-2.4 0,-1.5 -0.7,-1.9 -2.2,-1.9 h -8 c -0.7,0 -1.2,0 -1.7,-0.2 2.7,-1.7 6,-5.6 6,-10.2 0,-4.6 -3,-7.6 -8.7,-7.6 -0.7,-0.1 -1.4,0 -2.1,0"
       id="path15" />
  </clipPath>
  <linearGradient
     id="x"
     gradientTransform="matrix(0,107.0831,-107.0831,0,70148.281,5350.5098)"
     gradientUnits="userSpaceOnUse"
     x1="-47.932899"
     x2="-45.516102"
     xlink:href="#k"
     y1="653.60492"
     y2="653.60492" />
  <clipPath
     id="y">
    <path
       d="m 172.5,428.1 c -1.4,0 -1.7,0.5 -1.7,2.2 0,1.5 0.2,1.9 1.7,1.9 h 5.8 c 1.7,0 2.2,-0.5 2.2,-2.2 0,-1.4 -0.7,-1.9 -2.2,-1.9 z"
       id="path16" />
  </clipPath>
  <linearGradient
     id="z"
     gradientTransform="matrix(0,107.0831,-107.0831,0,70155.484,5350.5098)"
     gradientUnits="userSpaceOnUse"
     x1="-47.932899"
     x2="-45.516102"
     xlink:href="#k"
     y1="653.50958"
     y2="653.50958" />
  <clipPath
     id="A">
    <path
       d="m 178.3,428.1 c -1.5,0 -1.7,0.5 -1.7,2.2 0,1.5 0.2,1.9 1.7,1.9 h 5.8 c 1.7,0 2.2,-0.5 2.2,-2.2 0,-1.4 -0.7,-1.9 -2.2,-1.9 z"
       id="path17" />
  </clipPath>
  <linearGradient
     id="B"
     gradientTransform="matrix(0,107.0831,-107.0831,0,70157.883,5350.5098)"
     gradientUnits="userSpaceOnUse"
     x1="-47.932899"
     x2="-45.516102"
     xlink:href="#k"
     y1="653.47791"
     y2="653.47791" />
  <clipPath
     id="C">
    <path
       d="m 190.4,396.2 c -0.2,0 -0.5,0 -0.5,0.5 v 28.5 c 0,1.9 -0.7,2.7 -2.4,2.7 h -3.4 c -1.7,0 -2.2,0.7 -2.2,2.4 0,1.5 0.7,1.9 2.2,1.9 l 3.9,0.2 c 4.6,0 6.3,-2.2 6.3,-6.8 v -29 c 0,-0.2 0,-0.5 -0.5,-0.5 h -3.4 z"
       id="path18" />
  </clipPath>
  <linearGradient
     id="D"
     gradientTransform="matrix(0,107.0831,-107.0831,0,70160.633,5350.5098)"
     gradientUnits="userSpaceOnUse"
     x1="-47.932899"
     x2="-45.516102"
     xlink:href="#k"
     y1="653.44153"
     y2="653.44153" />
  <clipPath
     id="E">
    <path
       d="m 202.5,396.2 c -0.2,0 -0.5,0 -0.5,0.5 v 35 c 0,0.2 0,0.5 0.5,0.5 h 3.4 c 0.2,0 0.5,0 0.5,-0.5 v -35 c 0,-0.2 0,-0.5 -0.5,-0.5 z"
       id="path19" />
  </clipPath>
  <linearGradient
     id="F"
     gradientTransform="matrix(0,107.0831,-107.0831,0,70167.281,5350.5098)"
     gradientUnits="userSpaceOnUse"
     x1="-47.932899"
     x2="-45.516102"
     xlink:href="#k"
     y1="653.35352"
     y2="653.35352" />
  <clipPath
     id="G">
    <path
       d="m 217.2,421.5 c 0,-4.8 2.4,-7.7 5.8,-7.7 3.9,0 5.6,2.9 5.6,7.5 v 7 h -5.3 c -4.2,0 -6.1,-1.7 -6.1,-6.8 m -4.1,0 c 0,8.2 3.9,10.9 10.2,10.9 h 5.6 v 1.2 c 0,4.1 -2.4,5.1 -5.1,5.1 h -6.5 c -0.2,0 -0.5,0 -0.5,0.5 v 3.1 c 0,0.2 0,0.5 0.5,0.5 h 7 c 5.6,0 9.2,-2.9 9.2,-9.4 v -12.3 c 0,-8.2 -3.6,-11.6 -10.2,-11.6 -5.6,0 -10.2,3.8 -10.2,12"
       id="path20" />
  </clipPath>
  <linearGradient
     id="H"
     gradientTransform="matrix(0,107.0831,-107.0831,0,70175.18,5350.5098)"
     gradientUnits="userSpaceOnUse"
     x1="-47.932899"
     x2="-45.516102"
     xlink:href="#k"
     y1="653.24902"
     y2="653.24902" />
  <clipPath
     id="I">
    <path
       d="m 265.5,437.3 c -0.2,0 -0.5,0 -0.5,0.5 v 3.9 c 0,0.2 0,0.5 0.5,0.5 h 3.6 c 0.2,0 0.5,0 0.5,-0.5 v -3.9 c 0,-0.2 0,-0.5 -0.5,-0.5 z m -10.1,-23.7 c -0.2,0.2 0,0.5 0.2,0.7 l 2.4,1.9 c 0.2,0.2 0.5,0.2 0.7,0 1.5,-1.7 3.6,-2.7 6,-2.7 5.6,0 7.2,3.9 7.2,9.4 0,3.9 -0.7,5.1 -4.6,5.1 H 259 c -3.1,0 -7.5,1.7 -7.5,7.5 0,5.1 3.1,7.3 8.7,7.3 v -0.5 h 1.7 c 0.2,0 0.5,0 0.5,-0.5 v -3.1 c 0,-0.2 0,-0.5 -0.5,-0.5 h -1.7 c -3.6,0 -4.6,-0.7 -4.6,-3.1 0,-1.7 0.7,-3.1 2.9,-3.1 h 10.2 c 3.1,0 5.3,-0.7 6.5,-3.1 0.7,2.2 2.9,3.1 5.3,3.1 h 1.2 c 1.7,0 2.2,-0.2 2.2,-2.2 0,-1.5 -0.7,-1.9 -2.2,-1.9 h -0.5 c -2.9,0 -4.6,-1.2 -4.8,-3.4 -0.2,-0.5 0,-1.2 0,-1.7 0,-7 -2.4,-13.5 -12.1,-13.5 -4.1,-0.1 -7,1.9 -8.9,4.3"
       id="path21" />
  </clipPath>
  <linearGradient
     id="J"
     gradientTransform="matrix(0,107.0831,-107.0831,0,70193.578,5350.5098)"
     gradientUnits="userSpaceOnUse"
     x1="-47.932899"
     x2="-45.516102"
     xlink:href="#k"
     y1="653.00562"
     y2="653.00562" />
  <clipPath
     id="K">
    <path
       d="m 282,428.1 c -1.5,0 -1.7,0.5 -1.7,2.2 0,1.5 0.2,1.9 1.7,1.9 h 5.8 c 1.7,0 2.2,-0.5 2.2,-2.2 0,-1.4 -0.7,-1.9 -2.2,-1.9 z"
       id="path22" />
  </clipPath>
  <linearGradient
     id="L"
     gradientTransform="matrix(0,107.0831,-107.0831,0,70200.781,5350.5098)"
     gradientUnits="userSpaceOnUse"
     x1="-47.932899"
     x2="-45.516102"
     xlink:href="#k"
     y1="652.91028"
     y2="652.91028" />
  <clipPath
     id="M">
    <path
       d="m 287.8,428.1 c -1.5,0 -1.7,0.5 -1.7,2.2 0,1.5 0.2,1.9 1.7,1.9 h 5.8 c 1.7,0 2.2,-0.5 2.2,-2.2 0,-1.4 -0.7,-1.9 -2.2,-1.9 z"
       id="path23" />
  </clipPath>
  <linearGradient
     id="N"
     gradientTransform="matrix(0,107.0831,-107.0831,0,70203.18,5350.5098)"
     gradientUnits="userSpaceOnUse"
     x1="-47.932899"
     x2="-45.516102"
     xlink:href="#k"
     y1="652.87848"
     y2="652.87848" />
  <clipPath
     id="O">
    <path
       d="m 293.8,428.1 c -1.5,0 -1.7,0.5 -1.7,2.2 0,1.5 0.2,1.9 1.7,1.9 h 5.8 c 1.7,0 2.2,-0.5 2.2,-2.2 0,-1.4 -0.7,-1.9 -2.2,-1.9 z"
       id="path24" />
  </clipPath>
  <linearGradient
     id="P"
     gradientTransform="matrix(0,107.0831,-107.0831,0,70205.68,5350.5098)"
     gradientUnits="userSpaceOnUse"
     x1="-47.932899"
     x2="-45.516102"
     xlink:href="#k"
     y1="652.84552"
     y2="652.84552" />
  <clipPath
     id="Q">
    <path
       d="m 302.8,413.8 c -0.2,0.2 0,0.5 0.2,0.7 l 2.4,1.9 c 0.2,0.2 0.5,0.2 0.7,0 1.5,-1.7 3.4,-2.7 5.6,-2.9 5.6,0 7.3,3.9 7.3,9.4 0,3.9 -0.7,5.1 -4.6,5.1 h -15 c -1.7,0 -2.2,0.2 -2.2,1.9 0,1.4 0.7,2.2 2.2,2.2 h 16.7 c 3.1,0 5.3,-0.7 6.5,-3.1 0.7,2.2 2.9,3.1 5.3,3.1 h 1.2 c 1.7,0 2.2,-0.2 2.2,-2.2 0,-1.4 -0.7,-1.9 -2.2,-1.9 h -0.5 c -2.9,0 -4.6,-1.2 -4.8,-3.4 -0.2,-0.5 0,-1.2 0,-1.7 0,-7 -2.4,-13.5 -12.1,-13.5 -4.1,0.1 -7,2 -8.9,4.4"
       id="path25" />
  </clipPath>
  <linearGradient
     id="R"
     gradientTransform="matrix(0,107.0831,-107.0831,0,70212.828,5350.5098)"
     gradientUnits="userSpaceOnUse"
     x1="-47.932899"
     x2="-45.516102"
     xlink:href="#k"
     y1="652.75092"
     y2="652.75092" />
  <clipPath
     id="S">
    <path
       d="m 335.6,396.2 c -0.2,0 -0.5,0 -0.5,0.5 v 28.5 c 0,1.9 -0.7,2.7 -2.4,2.7 h -3.4 c -1.7,0 -2.2,0.7 -2.2,2.4 0,1.5 0.7,1.9 2.2,1.9 l 3.9,0.2 c 4.6,0 6.3,-2.2 6.3,-6.8 v -29 c 0,-0.2 0,-0.5 -0.5,-0.5 h -3.4 z"
       id="path26" />
  </clipPath>
  <linearGradient
     id="T"
     gradientTransform="matrix(0,107.0831,-107.0831,0,70220.734,5350.5098)"
     gradientUnits="userSpaceOnUse"
     x1="-47.932899"
     x2="-45.516102"
     xlink:href="#k"
     y1="652.64642"
     y2="652.64642" />
  <clipPath
     id="U">
    <path
       d="m 347.5,396.2 c -0.2,0 -0.5,0 -0.5,0.5 v 35 c 0,0.2 0,0.5 0.5,0.5 h 3.4 c 0.2,0 0.5,0 0.5,-0.5 v -35 c 0,-0.2 0,-0.5 -0.5,-0.5 z"
       id="path27" />
  </clipPath>
  <linearGradient
     id="V"
     gradientTransform="matrix(0,107.0831,-107.0831,0,70227.281,5350.5098)"
     gradientUnits="userSpaceOnUse"
     x1="-47.932899"
     x2="-45.516102"
     xlink:href="#k"
     y1="652.55969"
     y2="652.55969" />
  <clipPath
     id="W">
    <path
       d="m 375,421.1 c 0,-4.6 1.7,-7.3 5.8,-7.5 4.1,0 5.8,2.9 5.8,7.5 0,5.1 -1.7,7.3 -5.8,7.3 -4.1,-0.1 -5.8,-2.3 -5.8,-7.3 m -4.6,0 c 0,8.2 3.9,11.6 10.1,11.6 6.3,0 10.2,-3.4 10.2,-11.6 0,-8.2 -3.9,-11.6 -10.2,-11.6 -6.2,0 -10.1,3.3 -10.1,11.6 m 5.1,-20.6 c -0.2,0 -0.5,0 -0.5,0.5 v 3.9 c 0,0.2 0,0.5 0.5,0.5 h 3.6 c 0.2,0 0.5,0 0.5,-0.5 V 401 c 0,-0.2 0,-0.5 -0.5,-0.5 z m 6.5,0 c -0.2,0 -0.5,0 -0.5,0.5 v 3.9 c 0,0.2 0,0.5 0.5,0.5 h 3.6 c 0.2,0 0.5,0 0.5,-0.5 V 401 c 0,-0.2 0,-0.5 -0.5,-0.5 z"
       id="path28" />
  </clipPath>
  <linearGradient
     id="X"
     gradientTransform="matrix(0,107.0831,-107.0831,0,70240.281,5350.5098)"
     gradientUnits="userSpaceOnUse"
     x1="-47.932899"
     x2="-45.516102"
     xlink:href="#k"
     y1="652.3877"
     y2="652.3877" />
  <clipPath
     id="Y">
    <path
       d="m 400.4,410.7 c -0.2,0 -0.5,0 -0.5,0.5 v 23 c 0,3.1 -1.5,4.6 -4.4,4.6 h -1.2 c -0.2,0 -0.5,0 -0.5,0.5 v 3.1 c 0,0.2 0,0.5 0.5,0.5 h 1.2 c 5.8,0 8.7,-2.9 8.7,-8.7 v -23 c 0,-0.2 0,-0.5 -0.5,-0.5 z"
       id="path29" />
  </clipPath>
  <linearGradient
     id="Z"
     gradientTransform="matrix(0,107.0831,-107.0831,0,70247.93,5350.5098)"
     gradientUnits="userSpaceOnUse"
     x1="-47.932899"
     x2="-45.516102"
     xlink:href="#k"
     y1="652.2865"
     y2="652.2865" />
  <clipPath
     id="aa">
    <path
       d="m 412,396.2 c -0.2,0 -0.5,0 -0.5,0.5 v 35 c 0,0.2 0,0.5 0.5,0.5 h 3.4 c 0.2,0 0.5,0 0.5,-0.5 v -35 c 0,-0.2 0,-0.5 -0.5,-0.5 z"
       id="path30" />
  </clipPath>
  <linearGradient
     id="ab"
     gradientTransform="matrix(0,107.0831,-107.0831,0,70253.984,5350.5098)"
     gradientUnits="userSpaceOnUse"
     x1="-47.932899"
     x2="-45.516102"
     xlink:href="#k"
     y1="652.20642"
     y2="652.20642" />
  <clipPath
     id="ac">
    <path
       d="m 426,410.7 c -0.2,0 -0.5,0 -0.5,0.5 v 23 c 0,3.1 -1.5,4.6 -4.3,4.6 H 420 c -0.2,0 -0.5,0 -0.5,0.5 v 3.1 c 0,0.2 0,0.5 0.5,0.5 h 1.2 c 5.8,0 8.7,-2.9 8.7,-8.7 v -23 c 0,-0.2 0,-0.5 -0.5,-0.5 z m 0.3,-10.2 c -0.2,0 -0.5,0 -0.5,0.5 v 3.9 c 0,0.2 0,0.5 0.5,0.5 h 3.6 c 0.2,0 0.5,0 0.5,-0.5 V 401 c 0,-0.2 0,-0.5 -0.5,-0.5 z"
       id="path31" />
  </clipPath>
  <linearGradient
     id="ad"
     gradientTransform="matrix(0,107.0831,-107.0831,0,70258.633,5350.5098)"
     gradientUnits="userSpaceOnUse"
     x1="-47.932899"
     x2="-45.516102"
     xlink:href="#k"
     y1="652.1449"
     y2="652.1449" />
  <clipPath
     id="ae">
    <path
       d="m 440.8,421.5 c 0,-4.8 2.4,-7.7 5.8,-7.7 3.9,0 5.6,2.9 5.6,7.5 v 7 h -5.3 c -4.2,0 -6.1,-1.7 -6.1,-6.8 m -4.4,0 c 0,8.2 3.9,10.9 10.2,10.9 h 5.8 v 1.2 c 0,4.1 -2.4,5.1 -5.1,5.1 h -6.5 c -0.2,0 -0.5,0 -0.5,0.5 v 3.1 c 0,0.2 0,0.5 0.5,0.5 h 6.8 c 5.6,0 9.2,-2.9 9.2,-9.4 v -12.3 c 0,-8.2 -3.6,-11.6 -10.1,-11.6 -5.7,0 -10.3,3.8 -10.3,12"
       id="path32" />
  </clipPath>
  <linearGradient
     id="af"
     gradientTransform="matrix(0,107.0831,-107.0831,0,70267.578,5350.5098)"
     gradientUnits="userSpaceOnUse"
     x1="-47.932899"
     x2="-45.516102"
     xlink:href="#k"
     y1="652.02649"
     y2="652.02649" />
  <clipPath
     id="ag">
    <path
       d="m 70.8,460.2 c -0.2,0 -0.2,0 -0.5,0.2 l -6,13.8 H 64 l -6,-13.8 c 0,0 -0.2,-0.2 -0.5,-0.2 h -1.9 c 0,0 -0.2,0 -0.2,0.2 h 0.5 v 19.8 c 0,0 0,0.2 0.2,0.2 H 58 c 0,0 0.2,0 0.2,-0.2 v -13.7 l 4.8,10.6 c 0,0 0.2,0.2 0.5,0.2 h 1.2 c 0.2,0 0.2,0 0.5,-0.2 L 70.3,466 h 0.2 v 14.3 c 0,0 0,0.2 0.2,0.2 h 1.9 c 0,0 0.2,0 0.2,-0.2 v -19.8 c 0,0 0,-0.2 -0.2,-0.2 h -1.8 z"
       id="path33" />
  </clipPath>
  <linearGradient
     id="ah">
    <stop
       offset="0"
       stop-color="#cf9921"
       id="stop33" />
    <stop
       offset=".31"
       stop-color="#ebcd95"
       id="stop34" />
    <stop
       offset=".74"
       stop-color="#ffda7e"
       id="stop35" />
    <stop
       offset="1"
       stop-color="#ae782c"
       id="stop36" />
  </linearGradient>
  <linearGradient
     id="ai"
     gradientTransform="matrix(0,66.5807,-66.5807,0,43701.77,3370.1072)"
     gradientUnits="userSpaceOnUse"
     x1="-45.7239"
     x2="-43.307098"
     xlink:href="#ah"
     y1="655.40997"
     y2="655.40997" />
  <clipPath
     id="aj">
    <path
       d="m 78,460.2 c 0,0 -0.2,0 -0.2,0.2 v 19.8 c 0,0 0,0.2 0.2,0.2 h 1.9 c 0,0 0.2,0 0.2,-0.2 v -19.8 c 0,0 0,-0.2 -0.2,-0.2 z"
       id="path36" />
  </clipPath>
  <linearGradient
     id="ak"
     gradientTransform="matrix(0,66.5807,-66.5807,0,43707.918,3370.1072)"
     gradientUnits="userSpaceOnUse"
     x1="-45.7239"
     x2="-43.307098"
     xlink:href="#ah"
     y1="655.27911"
     y2="655.27911" />
  <clipPath
     id="al">
    <path
       d="m 97.6,460.2 c 0,0 -0.2,0 -0.2,0.2 v 15.2 H 97.2 L 88,460.4 c 0,0 -0.2,-0.2 -0.5,-0.2 h -1.9 c 0,0 -0.2,0 -0.2,0.2 v 19.8 c 0,0 0,0.2 0.2,0.2 h 1.9 c 0,0 0.2,0 0.2,-0.2 V 465 h 0.2 l 9.2,15.2 c 0,0 0.2,0.2 0.5,0.2 h 1.9 c 0,0 0.2,0 0.2,-0.2 v -19.8 c 0,0 0,-0.2 -0.2,-0.2 z"
       id="path37" />
  </clipPath>
  <linearGradient
     id="am"
     gradientTransform="matrix(0,66.5807,-66.5807,0,43713.52,3370.1072)"
     gradientUnits="userSpaceOnUse"
     x1="-45.7239"
     x2="-43.307098"
     xlink:href="#ah"
     y1="655.15997"
     y2="655.15997" />
  <clipPath
     id="an">
    <path
       d="m 104.8,460.2 c 0,0 -0.2,0 -0.2,0.2 v 19.8 c 0,0 0,0.2 0.2,0.2 h 1.9 c 0,0 0.2,0 0.2,-0.2 v -19.8 c 0,0 0,-0.2 -0.2,-0.2 z"
       id="path38" />
  </clipPath>
  <linearGradient
     id="ao"
     gradientTransform="matrix(0,66.5807,-66.5807,0,43719.02,3370.1072)"
     gradientUnits="userSpaceOnUse"
     x1="-45.7239"
     x2="-43.307098"
     xlink:href="#ah"
     y1="655.04303"
     y2="655.04303" />
  <clipPath
     id="ap">
    <path
       d="m 111.4,465.5 c 0,3.4 2.2,5.3 6,5.8 h 1.2 c 3.4,0.7 4.4,1.7 4.4,3.4 0,1.9 -1.7,3.4 -4.6,3.4 -2.4,0 -4.6,-1 -5.8,-1.9 -0.2,-0.2 -0.2,-0.2 -0.5,0 l -1.2,1.7 c -0.2,0.2 -0.2,0.2 0,0.5 1.7,1.4 4.6,2.4 6.5,2.4 5.1,0 7.5,-2.7 7.5,-6 0,-3.4 -2.2,-5.3 -6,-5.8 l -1,-0.2 c -3.1,-0.5 -4.4,-1.5 -4.4,-3.1 0,-2.2 1.5,-3.4 3.9,-3.4 1.9,0 3.4,0.5 5.1,1.5 0.2,0.2 0.2,0.2 0.5,0 l 1,-1.7 c 0.2,-0.2 0.2,-0.2 0,-0.5 -1.5,-1.2 -3.6,-1.9 -6,-1.9 -4,-0.2 -6.6,2.2 -6.6,5.8"
       id="path39" />
  </clipPath>
  <linearGradient
     id="aq"
     gradientTransform="matrix(0,66.5807,-66.5807,0,43723.98,3370.1072)"
     gradientUnits="userSpaceOnUse"
     x1="-45.7239"
     x2="-43.307098"
     xlink:href="#ah"
     y1="654.93781"
     y2="654.93781" />
  <clipPath
     id="ar">
    <path
       d="m 127.8,460.2 c 0,0 -0.2,0 -0.2,0.2 v 1.9 c 0,0 0,0.2 0.2,0.2 h 5.6 c 0.2,0 0.2,0 0.2,0.2 v 17.4 c 0,0 0,0.2 0.2,0.2 h 2.2 c 0,0 0.2,0 0.2,-0.2 v -17.4 c 0,-0.2 0,-0.2 0.2,-0.2 h 5.6 c 0,0 0.2,0 0.2,-0.2 v -1.9 c 0,0 0,-0.2 -0.2,-0.2 z"
       id="path40" />
  </clipPath>
  <linearGradient
     id="as"
     gradientTransform="matrix(0,66.5807,-66.5807,0,43731.07,3370.1072)"
     gradientUnits="userSpaceOnUse"
     x1="-45.7239"
     x2="-43.307098"
     xlink:href="#ah"
     y1="654.7865"
     y2="654.7865" />
  <clipPath
     id="at">
    <path
       d="m 148.1,469.4 v -6.5 c 0,-0.2 0,-0.2 0.2,-0.2 h 4.6 c 2.7,0 3.9,1.2 3.9,3.4 0,2.2 -1.5,3.4 -3.9,3.4 l -4.6,0.2 c -0.2,-0.1 -0.2,-0.1 -0.2,-0.3 m -2.2,-8.9 c 0,0 -0.2,0 -0.2,0.2 v 19.8 c 0,0 0,0.2 0.2,0.2 h 1.9 c 0,0 0.2,0 0.2,-0.2 v -8.2 c 0,-0.2 0,-0.2 0.2,-0.2 h 4.4 l 4.1,8.2 c 0.2,0 0.2,0.2 0.5,0.2 l 2.7,0.2 c 0.5,0 0.5,0 0.2,-0.2 l -4.4,-8.7 c 2.4,-1 3.9,-2.9 3.9,-5.6 0,-3.4 -2.7,-5.8 -6.5,-5.8 h -7.2 z"
       id="path41" />
  </clipPath>
  <linearGradient
     id="au"
     gradientTransform="matrix(0,66.5807,-66.5807,0,43738.551,3370.1072)"
     gradientUnits="userSpaceOnUse"
     x1="-45.7239"
     x2="-43.307098"
     xlink:href="#ah"
     y1="654.62659"
     y2="654.62659" />
  <clipPath
     id="av">
    <path
       d="m 174.4,460.5 c -0.2,0 -0.2,0 -0.5,0.2 l -4.6,8.7 -4.6,-8.7 c -0.2,0 -0.2,-0.2 -0.5,-0.2 H 162 c -0.2,0 -0.5,0 -0.2,0.2 l 6,11.6 v 8 c 0,0 0,0.2 0.2,0.2 h 2.2 c 0,0 0.2,0 0.2,-0.2 v -8 l 6,-11.6 c 0,0 0,-0.2 -0.2,-0.2 z"
       id="path42" />
  </clipPath>
  <linearGradient
     id="aw"
     gradientTransform="matrix(0,66.5807,-66.5807,0,43745.25,3370.1072)"
     gradientUnits="userSpaceOnUse"
     x1="-45.7239"
     x2="-43.307098"
     xlink:href="#ah"
     y1="654.48578"
     y2="654.48578" />
  <clipPath
     id="ax">
    <path
       d="m 188,475.2 c -0.2,-0.7 -0.5,-2.2 -0.5,-5.1 0,-3.1 0.2,-4.3 0.5,-5.1 0.7,-2.2 1.9,-3.1 4.4,-3.1 2.4,0 3.9,1.2 4.4,3.1 0.2,0.7 0.5,2.2 0.5,5.1 0,3.1 -0.2,4.4 -0.5,5.1 -0.5,2.2 -1.9,3.1 -4.4,3.1 -2.5,0 -3.9,-1.2 -4.4,-3.1 m -2.4,-10.9 c -0.2,1.2 -0.5,2.4 -0.5,5.8 0,3.4 0,4.6 0.5,5.8 1,3.4 3.4,4.8 6.8,4.8 3.6,0 6,-1.7 7,-4.8 0.2,-1.2 0.5,-2.4 0.5,-5.8 0,-3.4 0,-4.6 -0.5,-5.8 -1.2,-3.1 -3.6,-4.8 -7,-4.8 -3.5,0 -5.9,1.7 -6.8,4.8"
       id="path43" />
  </clipPath>
  <linearGradient
     id="ay"
     gradientTransform="matrix(0,66.5807,-66.5807,0,43754.867,3370.1072)"
     gradientUnits="userSpaceOnUse"
     x1="-45.7239"
     x2="-43.307098"
     xlink:href="#ah"
     y1="654.28009"
     y2="654.28009" />
  <clipPath
     id="az">
    <path
       d="m 204.2,460.2 c 0,0 -0.2,0 -0.2,0.2 l 0.2,19.6 c 0,0 0,0.2 0.2,0.2 h 1.9 c 0,0 0.2,0 0.2,-0.2 v -8.2 c 0,-0.2 0,-0.2 0.2,-0.2 h 8.2 c 0,0 0.2,0 0.2,-0.2 v -1.9 c 0,0 0,-0.2 -0.2,-0.2 h -8.2 c -0.2,0 -0.2,0 -0.2,-0.2 v -6 c 0,-0.2 0,-0.2 0.2,-0.2 h 9.7 c 0,0 0.2,0 0.2,-0.2 v -1.9 c 0,0 0,-0.2 -0.2,-0.2 h -12.2 z"
       id="path44" />
  </clipPath>
  <linearGradient
     id="aA"
     gradientTransform="matrix(0,66.5807,-66.5807,0,43762.27,3370.1072)"
     gradientUnits="userSpaceOnUse"
     x1="-45.7239"
     x2="-43.307098"
     xlink:href="#ah"
     y1="654.12262"
     y2="654.12262" />
  <clipPath
     id="aB">
    <path
       d="m 239.2,460.2 c 0,0 -0.2,0 -0.2,0.2 v 8.2 c 0,0.2 0,0.2 -0.2,0.2 H 230 c -0.2,0 -0.2,0 -0.2,-0.2 v -8.2 c 0,0 0,-0.2 -0.2,-0.2 h -1.9 c 0,0 -0.2,0 -0.2,0.2 v 19.8 c 0,0 0,0.2 0.2,0.2 h 1.9 c 0,0 0.2,0 0.2,-0.2 v -8.7 c 0,-0.2 0,-0.2 0.2,-0.2 h 8.7 c 0.2,0 0.2,0 0.2,0.2 v 8.7 c 0,0 0,0.2 0.2,0.2 h 1.9 c 0,0 0.2,0 0.2,-0.2 v -19.8 c 0,0 0,-0.2 -0.2,-0.2 z"
       id="path45" />
  </clipPath>
  <linearGradient
     id="aC"
     gradientTransform="matrix(0,66.5807,-66.5807,0,43772.219,3370.1072)"
     gradientUnits="userSpaceOnUse"
     x1="-45.7239"
     x2="-43.307098"
     xlink:href="#ah"
     y1="653.91089"
     y2="653.91089" />
  <clipPath
     id="aD">
    <path
       d="m 253.5,464.3 3.1,9.2 h -6.3 z m -1.2,-4.1 c 0,0 -0.2,0 -0.2,0.2 l -7.2,19.8 c 0,0 0,0.2 0.2,0.2 h 1.9 c 0.2,0 0.2,0 0.5,-0.2 l 1.7,-4.4 h 8.2 l 1.7,4.4 c 0.2,0 0.2,0.2 0.5,0.2 h 1.9 c 0.2,0 0.2,0 0.2,-0.2 l -7,-19.8 c -0.2,0 -0.2,-0.2 -0.5,-0.2 z"
       id="path46" />
  </clipPath>
  <linearGradient
     id="aE"
     gradientTransform="matrix(0,66.5807,-66.5807,0,43780.02,3370.1072)"
     gradientUnits="userSpaceOnUse"
     x1="-45.7239"
     x2="-43.307098"
     xlink:href="#ah"
     y1="653.74487"
     y2="653.74487" />
  <clipPath
     id="aF">
    <path
       d="m 272.1,460.2 c 0,0 -0.2,0 -0.2,0.2 V 474 c 0,3.1 -1.4,4.4 -3.9,4.4 -1.2,0 -2.4,-0.7 -2.9,-1.2 -0.2,-0.2 -0.2,-0.2 -0.5,0 l -1.5,1.2 c 0,0.2 0,0.2 -0.2,0.5 1,1 2.9,1.9 4.8,1.9 4.1,0 6.5,-2.2 6.5,-6.8 v -13.5 c 0,0 0,-0.2 -0.2,-0.2 h -1.9 z"
       id="path47" />
  </clipPath>
  <linearGradient
     id="aG"
     gradientTransform="matrix(0,66.5807,-66.5807,0,43786.367,3370.1072)"
     gradientUnits="userSpaceOnUse"
     x1="-45.7239"
     x2="-43.307098"
     xlink:href="#ah"
     y1="653.6098"
     y2="653.6098" />
  <clipPath
     id="aH">
    <path
       d="m 286.6,460.2 c 0,0 -0.2,0 -0.2,0.2 V 474 c 0,3.1 -1.5,4.4 -3.9,4.4 -1.2,0 -2.4,-0.7 -2.9,-1.2 -0.2,-0.2 -0.2,-0.2 -0.5,0 l -1.4,1.2 c 0,0.2 0,0.2 -0.2,0.5 1,1 2.9,1.9 4.8,1.9 4.1,0 6.5,-2.2 6.5,-6.8 v -13.5 c 0,0 0,-0.2 -0.2,-0.2 h -2 z"
       id="path48" />
  </clipPath>
  <linearGradient
     id="aI"
     gradientTransform="matrix(0,66.5807,-66.5807,0,43792.367,3370.1072)"
     gradientUnits="userSpaceOnUse"
     x1="-45.7239"
     x2="-43.307098"
     xlink:href="#ah"
     y1="653.48212"
     y2="653.48212" />
  <clipPath
     id="aJ">
    <path
       d="m 307.6,464.3 3.1,9.2 h -6.3 z m -1.2,-4.1 c 0,0 -0.2,0 -0.2,0.2 l -7.5,19.8 c 0,0 0,0.2 0.2,0.2 h 1.9 c 0.2,0 0.2,0 0.5,-0.2 l 1.7,-4.4 h 8.5 l 1.7,4.4 c 0.2,0 0.2,0.2 0.5,0.2 h 1.9 c 0.2,0 0.2,0 0.2,-0.2 l -7,-19.8 c -0.2,0 -0.2,-0.2 -0.5,-0.2 z"
       id="path49" />
  </clipPath>
  <linearGradient
     id="aK"
     gradientTransform="matrix(0,66.5807,-66.5807,0,43802.367,3370.1072)"
     gradientUnits="userSpaceOnUse"
     x1="-45.7239"
     x2="-43.307098"
     xlink:href="#ah"
     y1="653.26929"
     y2="653.26929" />
  <clipPath
     id="aL">
    <path
       d="m 331,460.2 c 0,0 -0.2,0 -0.2,0.2 v 15.2 h -0.2 l -9.2,-15.2 c 0,0 -0.2,-0.2 -0.5,-0.2 H 319 c 0,0 -0.2,0 -0.2,0.2 v 19.8 c 0,0 0,0.2 0.2,0.2 h 1.9 c 0,0 0.2,0 0.2,-0.2 V 465 h 0.2 l 9.2,15.2 c 0,0 0.2,0.2 0.5,0.2 h 1.9 c 0,0 0.2,0 0.2,-0.2 v -19.8 c 0,0 0,-0.2 -0.2,-0.2 z"
       id="path50" />
  </clipPath>
  <linearGradient
     id="aM"
     gradientTransform="matrix(0,66.5807,-66.5807,0,43810.117,3370.1072)"
     gradientUnits="userSpaceOnUse"
     x1="-45.7239"
     x2="-43.307098"
     xlink:href="#ah"
     y1="653.10437"
     y2="653.10437" />
  <clipPath
     id="aN">
    <path
       d="m 340.7,462.9 c 0,-0.2 0,-0.2 0.2,-0.2 h 3.9 c 2.4,0 3.9,0.7 4.6,2.7 0.2,0.7 0.5,1.9 0.5,5.1 0,3.4 -0.2,4.4 -0.5,5.1 -0.7,1.9 -2.2,2.7 -4.6,2.7 l -3.9,-0.2 c 0,0.2 0,0.2 0,0 h -0.2 z m -2.4,-2.7 c 0,0 -0.2,0 -0.2,0.2 v 19.8 c 0,0 0,0.2 0.2,0.2 h 6.8 c 3.4,0 5.6,-1.5 6.5,-4.4 0.2,-1.2 0.5,-2.2 0.5,-5.8 0,-3.6 -0.2,-4.6 -0.5,-5.8 -0.7,-2.9 -3.1,-4.4 -6.5,-4.4 h -6.8 z"
       id="path51" />
  </clipPath>
  <linearGradient
     id="aO"
     gradientTransform="matrix(0,66.5807,-66.5807,0,43818.02,3370.1072)"
     gradientUnits="userSpaceOnUse"
     x1="-45.7239"
     x2="-43.307098"
     xlink:href="#ah"
     y1="652.93628"
     y2="652.93628" />
  <clipPath
     id="aP">
    <path
       d="m 375.3,460.2 c 0,0 -0.2,0 -0.2,0.2 v 12.8 c 0,3.4 -1.7,5.1 -4.6,5.1 -2.9,0 -4.6,-1.7 -4.6,-5.1 v -12.8 c 0,0 0,-0.2 -0.2,-0.2 h -1.9 c 0,0 -0.2,0 -0.2,0.2 v 13.1 c 0,4.6 2.4,7.3 6.8,7.5 4.6,0 7.3,-2.7 7.3,-7.5 v -13.1 c 0,0 0,-0.2 -0.2,-0.2 z"
       id="path52" />
  </clipPath>
  <linearGradient
     id="aQ"
     gradientTransform="matrix(0,66.5807,-66.5807,0,43828.52,3370.1072)"
     gradientUnits="userSpaceOnUse"
     x1="-45.7239"
     x2="-43.307098"
     xlink:href="#ah"
     y1="652.71289"
     y2="652.71289" />
  <clipPath
     id="aR">
    <path
       d="m 398,460.2 c -0.2,0 -0.2,0 -0.5,0.2 l -6,13.8 h -0.2 l -6,-13.8 c 0,0 -0.2,-0.2 -0.5,-0.2 h -1.9 c 0,0 -0.2,0 -0.2,0.2 v 19.8 c 0,0 0,0.2 0.2,0.2 h 1.9 c 0,0 0.2,0 0.2,-0.2 V 466 h 0.2 l 5.1,11.1 c 0,0 0.2,0.2 0.5,0.2 h 1.2 c 0.2,0 0.2,0 0.5,-0.2 l 5.1,-11.1 h 0.2 v 14.3 c 0,0 0,0.2 0.2,0.2 h 1.9 c 0,0 0.2,0 0.2,-0.2 v -19.8 c 0,0 0,-0.2 -0.2,-0.2 H 398 Z"
       id="path53" />
  </clipPath>
  <linearGradient
     id="aS"
     gradientTransform="matrix(0,66.5807,-66.5807,0,43837.168,3370.1072)"
     gradientUnits="userSpaceOnUse"
     x1="-45.7239"
     x2="-43.307098"
     xlink:href="#ah"
     y1="652.52881"
     y2="652.52881" />
  <clipPath
     id="aT">
    <path
       d="m 407.4,469.4 v -6.5 c 0,-0.2 0,-0.2 0.2,-0.2 h 4.8 c 2.7,0 3.9,1.2 3.9,3.4 0,2.2 -1.5,3.4 -3.9,3.4 l -4.8,0.2 c -0.2,-0.1 -0.2,-0.1 -0.2,-0.3 m -2.4,-8.9 c 0,0 -0.2,0 -0.2,0.2 v 19.8 c 0,0 0,0.2 0.2,0.2 h 1.9 c 0,0 0.2,0 0.2,-0.2 v -8.2 c 0,-0.2 0,-0.2 0.2,-0.2 h 4.6 l 4.1,8.2 c 0.2,0 0.2,0.2 0.5,0.2 l 2.4,0.2 c 0.5,0 0.5,0 0.2,-0.2 l -4.4,-8.7 c 2.4,-1 3.9,-2.9 3.9,-5.6 0,-3.4 -2.7,-5.8 -6.5,-5.8 H 405 Z"
       id="path54" />
  </clipPath>
  <linearGradient
     id="aU"
     gradientTransform="matrix(0,66.5807,-66.5807,0,43845.75,3370.1072)"
     gradientUnits="userSpaceOnUse"
     x1="-45.7239"
     x2="-43.307098"
     xlink:href="#ah"
     y1="652.34558"
     y2="652.34558" />
  <clipPath
     id="aV">
    <path
       d="m 429.9,464.3 3.1,9.2 h -6.3 z m -1.2,-4.1 c 0,0 -0.2,0 -0.2,0.2 l -7.2,19.8 c 0,0 0,0.2 0.2,0.2 h 1.9 c 0.2,0 0.2,0 0.5,-0.2 l 1.7,-4.4 h 8.2 l 1.7,4.4 c 0.2,0 0.2,0.2 0.5,0.2 h 1.9 c 0.2,0 0.2,0 0.2,-0.2 l -7,-19.8 c -0.2,0 -0.2,-0.2 -0.5,-0.2 z"
       id="path55" />
  </clipPath>
  <linearGradient
     id="aW"
     gradientTransform="matrix(0,66.5807,-66.5807,0,43853.02,3370.1072)"
     gradientUnits="userSpaceOnUse"
     x1="-45.7239"
     x2="-43.307098"
     xlink:href="#ah"
     y1="652.19153"
     y2="652.19153" />
  <clipPath
     id="aX">
    <path
       d="m 452.6,460.2 c 0,0 -0.2,0 -0.2,0.2 v 8.2 c 0,0.2 0,0.2 -0.2,0.2 h -8.7 c -0.2,0 -0.2,0 -0.2,-0.2 v -8.2 c 0,0 0,-0.2 -0.2,-0.2 H 441 c 0,0 -0.2,0 -0.2,0.2 h 0.2 v 19.8 c 0,0 0,0.2 0.2,0.2 h 1.9 c 0,0 0.2,0 0.2,-0.2 v -8.7 c 0,-0.2 0,-0.2 0.2,-0.2 h 8.7 c 0.2,0 0.2,0 0.2,0.2 v 8.7 c 0,0 0,0.2 0.2,0.2 h 1.7 c 0,0 0.2,0 0.2,-0.2 v -19.8 c 0,0 0,-0.2 -0.2,-0.2 z"
       id="path56" />
  </clipPath>
  <linearGradient
     id="aY"
     gradientTransform="matrix(0,66.5807,-66.5807,0,43860.52,3370.1072)"
     gradientUnits="userSpaceOnUse"
     x1="-45.7239"
     x2="-43.307098"
     xlink:href="#ah"
     y1="652.03198"
     y2="652.03198" />
  <clipPath
     id="aZ">
    <path
       d="m 257.3,34.4 c -51,87.7 -120.4,107.8 -121.1,108.3 l -1,0.5 -0.2,29.7 h 1.2 l 3.6,-27.3 c 8,-6.8 71.3,-10.9 119.4,-92.3 47.4,81.4 114.6,85.8 123,92.3 l 3.4,27.6 h 1.2 v -29.7 l -1,-0.7 C 385.1,142.3 311.1,122.3 261.1,34.5 l -1.9,-3.4 z"
       id="path57" />
  </clipPath>
  <radialGradient
     id="a0"
     cx="258.67358"
     cy="237.81828"
     gradientUnits="userSpaceOnUse"
     r="180.89789"
     xlink:href="#ah" />
  <clipPath
     id="a1">
    <path
       d="m 177.3,208.6 h 64.3 v 11.6 h -64.3 z"
       id="path58" />
  </clipPath>
  <radialGradient
     id="a2"
     cx="251.77075"
     cy="14.159027"
     gradientUnits="userSpaceOnUse"
     r="216.22493"
     xlink:href="#k" />
  <clipPath
     id="a3">
    <path
       d="m 180.2,195.3 h 61.6 v 11.6 h -61.6 z"
       id="path59" />
  </clipPath>
  <clipPath
     id="a4">
    <path
       d="m 175.6,345.2 c -10.4,9.7 -34.8,31.9 -34.8,31.9 116,-20.8 191.9,-76.9 236.8,-126.9 -110.4,80.2 -178.8,91.1 -202,95"
       id="path60" />
  </clipPath>
  <radialGradient
     id="a5"
     cx="261.48026"
     cy="102.99017"
     gradientUnits="userSpaceOnUse"
     r="257.94669"
     xlink:href="#ah" />
  <clipPath
     id="a6">
    <path
       d="m 264.3,339.9 c 32.9,15.7 71.1,28.8 115,36.7 0,0 -24.4,-22.2 -34.8,-31.9 -10.6,-1.7 -30.9,-5.1 -60.4,-15.7 -3.3,1.9 -9.4,5.5 -19.8,10.9"
       id="path61" />
  </clipPath>
  <clipPath
     id="a7">
    <path
       d="m 238.2,326.1 c 4.4,-1.7 11.6,-4.6 19.3,-8 -31.2,-13.8 -69.4,-35.3 -115,-68.4 23.2,25.9 54.7,53.2 95.7,76.4"
       id="path62" />
  </clipPath>
  <clipPath
     id="a8">
    <path
       d="m 174.9,221.9 v 15.7 c 33.6,12.1 66.9,17.4 66.7,17.2 v -32.9 z"
       id="path63" />
  </clipPath>
  <clipPath
     id="a9">
    <path
       d="m 231.2,121.9 c -0.7,0.2 -1.2,0.7 -1.2,1.4 0,0.5 0.5,1.2 1,1.2 l -0.2,1.9 c -0.5,0.2 -1.2,1 -1.2,1.7 0,0.5 0.5,1.2 1,1.5 l -0.2,1.9 c -0.7,0.2 -1.2,1 -1.2,1.7 0,0.7 0.5,1.2 1,1.7 v 0.7 c 0,0 -2.7,8.7 -25.9,21.3 -15.2,8.2 -19.8,21.3 -21.3,29.2 -0.7,4.6 -0.5,7.5 -0.5,7.5 h 59 v -2.4 -5.1 -20.5 c 0,0 10.2,-2.7 20.8,-6 -18.6,-11.1 -29.5,-23.7 -29.5,-23.7 v -0.7 c 0.5,-0.5 1,-1 1,-1.7 0,-1 -0.5,-1.5 -1.2,-1.9 l -0.2,-1.9 c 0.5,-0.2 1,-1 1,-1.5 0,-0.7 -0.5,-1.4 -1.2,-1.7 l -0.2,-1.9 c 0.5,-0.2 1.2,-0.7 1.2,-1.2 0,-0.7 -0.5,-1.2 -1.2,-1.4 l -0.2,-2.9 z"
       id="path64" />
  </clipPath>
  <clipPath
     id="ba">
    <path
       d="m 135.3,221.4 c 2.9,2.4 8.2,6.5 8.2,6.5 46.9,34.1 86,55.3 117.5,69.4 31.2,-13.8 70.1,-35 116.2,-68.6 2.7,-1.9 6,-4.6 9.4,-7.3 -9.9,-2.2 -26.8,2.2 -26.8,2.2 0,0 -17.4,16.4 -31.2,19.1 -13.5,2.9 -30.7,2.4 -44.9,4.6 -14.3,2.2 -22.7,16.4 -22.7,16.4 0,0 -8.2,-14.3 -22.7,-16.4 -14.3,-2.2 -31.4,-1.7 -45,-4.6 -13.5,-2.9 -31.2,-19.1 -31.2,-19.1 0,0 -10.8,-2.9 -20,-2.9 -2.5,0 -4.8,0.2 -6.8,0.7"
       id="path65" />
  </clipPath>
  <radialGradient
     id="bb"
     cx="261.47601"
     cy="112.00781"
     gradientUnits="userSpaceOnUse"
     r="167.9744"
     xlink:href="#ah" />
  <g
     id="g127"
     transform="matrix(1.0796307,0,0,1.0796307,-59.811541,-33.576515)">
    <g
       id="g125">
      <path
         clip-path="url(#j)"
         d="m 55.5,400.5 h 20.3 v 32.1 H 55.5 Z"
         fill="url(#l)"
         id="path70"
         style="fill:url(#l)" />
      <path
         clip-path="url(#m)"
         d="m 79,410.7 h 17.9 v 32.1 H 79 Z"
         fill="url(#n)"
         id="path71"
         style="fill:url(#n)" />
      <path
         clip-path="url(#o)"
         d="m 93.2,428.1 h 9.7 v 4.1 h -9.7 z"
         fill="url(#p)"
         id="path72"
         style="fill:url(#p)" />
      <path
         clip-path="url(#q)"
         d="m 99,428.1 h 9.7 v 4.1 H 99 Z"
         fill="url(#r)"
         id="path73"
         style="fill:url(#r)" />
      <path
         clip-path="url(#s)"
         d="m 105.1,428.1 h 9.7 v 4.1 h -9.7 z"
         fill="url(#t)"
         id="path74"
         style="fill:url(#t)" />
      <path
         clip-path="url(#u)"
         d="m 110.4,409.7 h 35.5 v 23.2 h -35.5 z"
         fill="url(#v)"
         id="path75"
         style="fill:url(#v)" />
      <path
         clip-path="url(#w)"
         d="m 141.8,410.3 h 32.9 v 22.3 h -32.9 z"
         fill="url(#x)"
         id="path76"
         style="fill:url(#x)" />
      <path
         clip-path="url(#y)"
         d="m 170.8,428.1 h 9.7 v 4.1 h -9.7 z"
         fill="url(#z)"
         id="path77"
         style="fill:url(#z)" />
      <path
         clip-path="url(#A)"
         d="m 176.6,428.1 h 9.7 v 4.1 h -9.7 z"
         fill="url(#B)"
         id="path78"
         style="fill:url(#B)" />
      <path
         clip-path="url(#C)"
         d="m 181.9,396.2 h 12.3 v 36.3 h -12.3 z"
         fill="url(#D)"
         id="path79"
         style="fill:url(#D)" />
      <path
         clip-path="url(#E)"
         d="m 202,396.2 h 4.3 v 36 H 202 Z"
         fill="url(#F)"
         id="path80"
         style="fill:url(#F)" />
      <path
         clip-path="url(#G)"
         d="m 213.1,409.5 h 20.3 v 33.4 h -20.3 z"
         fill="url(#H)"
         id="path81"
         style="fill:url(#H)" />
      <path
         clip-path="url(#I)"
         d="m 251.5,409.2 h 32.4 v 33.6 h -32.4 z"
         fill="url(#J)"
         id="path82"
         style="fill:url(#J)" />
      <path
         clip-path="url(#K)"
         d="m 280.3,428.1 h 9.7 v 4.1 h -9.7 z"
         fill="url(#L)"
         id="path83"
         style="fill:url(#L)" />
      <path
         clip-path="url(#M)"
         d="m 286.1,428.1 h 9.7 v 4.1 h -9.7 z"
         fill="url(#N)"
         id="path84"
         style="fill:url(#N)" />
      <path
         clip-path="url(#O)"
         d="m 292.1,428.1 h 9.7 v 4.1 h -9.7 z"
         fill="url(#P)"
         id="path85"
         style="fill:url(#P)" />
      <path
         clip-path="url(#Q)"
         d="m 297.2,409.5 h 34.1 v 22.7 h -34.1 z"
         fill="url(#R)"
         id="path86"
         style="fill:url(#R)" />
      <path
         clip-path="url(#S)"
         d="m 327.2,396.2 h 12.3 v 36.3 h -12.3 z"
         fill="url(#T)"
         id="path87"
         style="fill:url(#T)" />
      <path
         clip-path="url(#U)"
         d="m 347,396.2 h 4.4 v 36 H 347 Z"
         fill="url(#V)"
         id="path88"
         style="fill:url(#V)" />
      <path
         clip-path="url(#W)"
         d="m 370.4,400.5 h 20.3 v 32.1 h -20.3 z"
         fill="url(#X)"
         id="path89"
         style="fill:url(#X)" />
      <path
         clip-path="url(#Y)"
         d="m 393.9,410.7 h 10.4 v 32.1 h -10.4 z"
         fill="url(#Z)"
         id="path90"
         style="fill:url(#Z)" />
      <path
         clip-path="url(#aa)"
         d="m 411.5,396.2 h 4.4 v 36 h -4.4 z"
         fill="url(#ab)"
         id="path91"
         style="fill:url(#ab)" />
      <path
         clip-path="url(#ac)"
         d="m 419.5,400.5 h 10.9 v 42.3 h -10.9 z"
         fill="url(#ad)"
         id="path92"
         style="fill:url(#ad)" />
      <path
         clip-path="url(#ae)"
         d="m 436.4,409.5 h 20.3 v 33.4 h -20.3 z"
         fill="url(#af)"
         id="path93"
         style="fill:url(#af)" />
    </g>
    <g
       id="g124">
      <path
         clip-path="url(#ag)"
         d="m 55.3,460.2 h 17.6 v 20.3 H 55.3 Z"
         fill="url(#ai)"
         id="path94"
         style="fill:url(#ai)" />
      <path
         clip-path="url(#aj)"
         d="m 77.8,460.2 h 2.4 v 20.3 h -2.4 z"
         fill="url(#ak)"
         id="path95"
         style="fill:url(#ak)" />
      <path
         clip-path="url(#al)"
         d="m 85.3,460.2 h 14.5 v 20.3 H 85.3 Z"
         fill="url(#am)"
         id="path96"
         style="fill:url(#am)" />
      <path
         clip-path="url(#an)"
         d="m 104.6,460.2 h 2.4 v 20.3 h -2.4 z"
         fill="url(#ao)"
         id="path97"
         style="fill:url(#ao)" />
      <path
         clip-path="url(#ap)"
         d="m 110.6,459.5 h 14.3 v 21.3 h -14.3 z"
         fill="url(#aq)"
         id="path98"
         style="fill:url(#aq)" />
      <path
         clip-path="url(#ar)"
         d="m 127.6,460.2 h 14.7 v 20.3 h -14.7 z"
         fill="url(#as)"
         id="path99"
         style="fill:url(#as)" />
      <path
         clip-path="url(#at)"
         d="m 145.7,460.5 h 14.7 v 20.3 h -14.7 z"
         fill="url(#au)"
         id="path100"
         style="fill:url(#au)" />
      <path
         clip-path="url(#av)"
         d="m 161.6,460.5 h 15 v 20.1 h -15 z"
         fill="url(#aw)"
         id="path101"
         style="fill:url(#aw)" />
      <path
         clip-path="url(#ax)"
         d="m 185.1,459.5 h 14.7 v 21.3 h -14.7 z"
         fill="url(#ay)"
         id="path102"
         style="fill:url(#ay)" />
      <path
         clip-path="url(#az)"
         d="m 203.9,460.2 h 12.8 v 20.1 h -12.8 z"
         fill="url(#aA)"
         id="path103"
         style="fill:url(#aA)" />
      <path
         clip-path="url(#aB)"
         d="m 227.4,460.2 h 14 v 20.3 h -14 z"
         fill="url(#aC)"
         id="path104"
         style="fill:url(#aC)" />
      <path
         clip-path="url(#aD)"
         d="m 244.8,460.2 h 16.9 v 20.3 h -16.9 z"
         fill="url(#aE)"
         id="path105"
         style="fill:url(#aE)" />
      <path
         clip-path="url(#aF)"
         d="m 262.9,460.2 h 11.4 v 20.5 h -11.4 z"
         fill="url(#aG)"
         id="path106"
         style="fill:url(#aG)" />
      <path
         clip-path="url(#aH)"
         d="m 277.4,460.2 h 11.4 v 20.5 h -11.4 z"
         fill="url(#aI)"
         id="path107"
         style="fill:url(#aI)" />
      <path
         clip-path="url(#aJ)"
         d="m 298.7,460.2 h 17.2 v 20.3 h -17.2 z"
         fill="url(#aK)"
         id="path108"
         style="fill:url(#aK)" />
      <path
         clip-path="url(#aL)"
         d="m 318.7,460.2 h 14.5 v 20.3 h -14.5 z"
         fill="url(#aM)"
         id="path109"
         style="fill:url(#aM)" />
      <path
         clip-path="url(#aN)"
         d="m 338.1,460.2 h 14 v 20.3 h -14 z"
         fill="url(#aO)"
         id="path110"
         style="fill:url(#aO)" />
      <path
         clip-path="url(#aP)"
         d="m 363.4,460.2 h 14 V 481 h -14 z"
         fill="url(#aQ)"
         id="path111"
         style="fill:url(#aQ)" />
      <path
         clip-path="url(#aR)"
         d="m 382.5,460.2 h 17.6 v 20.3 h -17.6 z"
         fill="url(#aS)"
         id="path112"
         style="fill:url(#aS)" />
      <path
         clip-path="url(#aT)"
         d="m 404.8,460.5 h 14.7 v 20.3 h -14.7 z"
         fill="url(#aU)"
         id="path113"
         style="fill:url(#aU)" />
      <path
         clip-path="url(#aV)"
         d="m 421.2,460.2 h 16.9 v 20.3 h -16.9 z"
         fill="url(#aW)"
         id="path114"
         style="fill:url(#aW)" />
      <path
         clip-path="url(#aX)"
         d="m 440.8,460.2 h 14 v 20.3 h -14 z"
         fill="url(#aY)"
         id="path115"
         style="fill:url(#aY)" />
    </g>
    <g
       id="g126">
      <path
         clip-path="url(#a)"
         d="m 241.9,174.8 h 52.2 v 95.9 h -52.2 z"
         fill="url(#c)"
         id="path66"
         style="fill:url(#c)" />
      <path
         clip-path="url(#d)"
         d="m 241.9,151.1 h 52.2 v 33.1 h -52.2 z"
         fill="url(#e)"
         id="path67"
         style="fill:url(#e)" />
      <path
         clip-path="url(#f)"
         d="m 294.1,174.8 h 52.2 v 84.3 h -52.2 z"
         fill="url(#g)"
         id="path68"
         style="fill:url(#g)" />
      <path
         clip-path="url(#h)"
         d="m 294.1,151.1 h 52.2 V 182 h -52.2 z"
         fill="url(#i)"
         id="path69"
         style="fill:url(#i)" />
      <path
         clip-path="url(#aZ)"
         d="M 135,31 H 386.8 V 173.1 H 135 Z"
         fill="url(#a0)"
         id="path116"
         style="fill:url(#a0)" />
      <path
         clip-path="url(#a1)"
         d="m 177.3,208.6 h 64.3 v 11.6 h -64.3 z"
         fill="url(#a2)"
         id="path117"
         style="fill:url(#radialGradient127)" />
      <path
         clip-path="url(#a3)"
         d="m 180.2,195.3 h 61.6 v 11.6 h -61.6 z"
         fill="url(#a2)"
         id="path118"
         style="fill:url(#radialGradient128)" />
      <g
         fill="url(#a5)"
         id="g121"
         style="fill:url(#a5)">
        <path
           clip-path="url(#a4)"
           d="M 140.8,250.2 H 377.6 V 377.1 H 140.8 Z"
           id="path119"
           style="fill:url(#radialGradient129)" />
        <path
           clip-path="url(#a6)"
           d="m 264.3,329 h 115 v 47.6 h -115 z"
           id="path120"
           style="fill:url(#radialGradient130)" />
        <path
           clip-path="url(#a7)"
           d="m 142.5,249.7 h 115 v 76.4 h -115 z"
           id="path121"
           style="fill:url(#radialGradient131)" />
      </g>
      <path
         clip-path="url(#a8)"
         d="m 174.9,221.9 h 66.9 V 255 h -66.9 z"
         fill="url(#a2)"
         id="path122"
         style="fill:url(#radialGradient132)" />
      <path
         clip-path="url(#a9)"
         d="m 182.2,119 h 80 v 74.7 h -80 z"
         fill="url(#a2)"
         id="path123"
         style="fill:url(#a2)" />
      <path
         clip-path="url(#ba)"
         d="m 135.3,219.3 h 251.3 v 78.1 H 135.3 Z"
         fill="url(#bb)"
         id="path124"
         style="fill:url(#bb)" />
    </g>
  </g>
</svg>
